# xmcd CD database file
#
# Track frame offsets:
#	150
#	18272
#	29887
#	53417
#	67742
#
# Disc length: 1284 seconds
#
# Revision: 1
# Processed by: cddbd v1.5.2PL0 Copyright (c) Steve Scherf et al.
# Submitted via: CDex 1.51
#
DISCID=35050205
DTITLE=タイトー - タイトーDJステーション･番外編
DYEAR=1990
DGENRE=ゲーム音楽
TTITLE0=第1話 「電話」
TTITLE1=第2話 「サラコン講座 第3回」
TTITLE2=第3話 「ゲームミュージック･ベストテン」
TTITLE3=第4話 「サラコン講座 第7回」
TTITLE4=第5話 「オペレーションサンダーボルト」
EXTD=YEAR: 1990
EXTT0=
EXTT1=
EXTT2=
EXTT3=
EXTT4=
PLAYORDER=
